<mxfile host="Electron" modified="2024-05-13T22:14:44.785Z" agent="Mozilla/5.0 (Windows NT 10.0; Win64; x64) AppleWebKit/537.36 (KHTML, like Gecko) draw.io/24.2.5 Chrome/120.0.6099.109 Electron/28.1.0 Safari/537.36" etag="ovSuggNYawUjQYgQH6A9" version="24.2.5" type="device">
  <diagram name="Page-1" id="KYGPjLS2ps8eEqaKxjbi">
    <mxGraphModel dx="2074" dy="395" grid="1" gridSize="10" guides="1" tooltips="1" connect="1" arrows="1" fold="1" page="1" pageScale="1" pageWidth="1654" pageHeight="1169" math="0" shadow="0">
      <root>
        <mxCell id="0" />
        <mxCell id="1" parent="0" />
        <mxCell id="5PDw7rlpr2lXiX5na-lG-161" value="" style="shape=curlyBracket;whiteSpace=wrap;html=1;rounded=1;flipH=1;labelPosition=right;verticalLabelPosition=middle;align=left;verticalAlign=middle;rotation=-90;strokeColor=#FF8000;size=0.5;" vertex="1" parent="1">
          <mxGeometry x="217.38" y="132.75" width="14.37" height="40.5" as="geometry" />
        </mxCell>
        <mxCell id="5PDw7rlpr2lXiX5na-lG-158" value="" style="shape=curlyBracket;whiteSpace=wrap;html=1;rounded=1;flipH=1;labelPosition=right;verticalLabelPosition=middle;align=left;verticalAlign=middle;rotation=90;strokeColor=#FF8000;size=0.10824601366742695;" vertex="1" parent="1">
          <mxGeometry x="113.07" y="178.44" width="57.87" height="33.5" as="geometry" />
        </mxCell>
        <mxCell id="5PDw7rlpr2lXiX5na-lG-159" value="" style="rounded=0;whiteSpace=wrap;html=1;strokeColor=none;" vertex="1" parent="1">
          <mxGeometry x="130" y="165" width="90" height="40" as="geometry" />
        </mxCell>
        <mxCell id="5PDw7rlpr2lXiX5na-lG-1" value="" style="rounded=0;whiteSpace=wrap;html=1;" vertex="1" parent="1">
          <mxGeometry x="120" y="160" width="220" height="10" as="geometry" />
        </mxCell>
        <mxCell id="5PDw7rlpr2lXiX5na-lG-68" style="rounded=0;orthogonalLoop=1;jettySize=auto;html=1;exitX=0.5;exitY=1;exitDx=0;exitDy=0;entryX=0.5;entryY=0;entryDx=0;entryDy=0;" edge="1" parent="1" source="5PDw7rlpr2lXiX5na-lG-2" target="5PDw7rlpr2lXiX5na-lG-41">
          <mxGeometry relative="1" as="geometry" />
        </mxCell>
        <mxCell id="5PDw7rlpr2lXiX5na-lG-2" value="1" style="rounded=0;whiteSpace=wrap;html=1;fillColor=#99FF99;fontColor=#006600;" vertex="1" parent="1">
          <mxGeometry x="120" y="160" width="10" height="10" as="geometry" />
        </mxCell>
        <mxCell id="5PDw7rlpr2lXiX5na-lG-37" value="" style="endArrow=classic;html=1;rounded=0;" edge="1" parent="1">
          <mxGeometry width="50" height="50" relative="1" as="geometry">
            <mxPoint x="120" y="150" as="sourcePoint" />
            <mxPoint x="160" y="150" as="targetPoint" />
          </mxGeometry>
        </mxCell>
        <mxCell id="5PDw7rlpr2lXiX5na-lG-38" value="t" style="text;html=1;align=left;verticalAlign=middle;whiteSpace=wrap;rounded=0;" vertex="1" parent="1">
          <mxGeometry x="120" y="130" width="10" height="20" as="geometry" />
        </mxCell>
        <mxCell id="5PDw7rlpr2lXiX5na-lG-39" value="snímanie kamerov" style="text;html=1;align=right;verticalAlign=middle;whiteSpace=wrap;rounded=0;spacingRight=4;fontColor=#006600;" vertex="1" parent="1">
          <mxGeometry x="10" y="155" width="110" height="20" as="geometry" />
        </mxCell>
        <mxCell id="5PDw7rlpr2lXiX5na-lG-40" value="" style="rounded=0;whiteSpace=wrap;html=1;" vertex="1" parent="1">
          <mxGeometry x="120" y="200" width="220" height="10" as="geometry" />
        </mxCell>
        <mxCell id="5PDw7rlpr2lXiX5na-lG-41" value="1" style="rounded=0;whiteSpace=wrap;html=1;fillColor=#66B2FF;fontColor=#0066CC;" vertex="1" parent="1">
          <mxGeometry x="154" y="200" width="10" height="10" as="geometry" />
        </mxCell>
        <mxCell id="5PDw7rlpr2lXiX5na-lG-67" value="dokončenie spracovania" style="text;html=1;align=right;verticalAlign=middle;whiteSpace=wrap;rounded=0;spacingRight=4;fontColor=#0066CC;" vertex="1" parent="1">
          <mxGeometry x="-20" y="195" width="140" height="20" as="geometry" />
        </mxCell>
        <mxCell id="5PDw7rlpr2lXiX5na-lG-69" style="rounded=0;orthogonalLoop=1;jettySize=auto;html=1;exitX=0.5;exitY=1;exitDx=0;exitDy=0;entryX=0.5;entryY=0;entryDx=0;entryDy=0;" edge="1" parent="1" source="5PDw7rlpr2lXiX5na-lG-70" target="5PDw7rlpr2lXiX5na-lG-71">
          <mxGeometry relative="1" as="geometry" />
        </mxCell>
        <mxCell id="5PDw7rlpr2lXiX5na-lG-70" value="2" style="rounded=0;whiteSpace=wrap;html=1;fillColor=#99FF99;fontColor=#006600;" vertex="1" parent="1">
          <mxGeometry x="160" y="160" width="10" height="10" as="geometry" />
        </mxCell>
        <mxCell id="5PDw7rlpr2lXiX5na-lG-71" value="2" style="rounded=0;whiteSpace=wrap;html=1;fillColor=#66B2FF;fontColor=#0066CC;" vertex="1" parent="1">
          <mxGeometry x="194" y="200" width="10" height="10" as="geometry" />
        </mxCell>
        <mxCell id="5PDw7rlpr2lXiX5na-lG-72" style="rounded=0;orthogonalLoop=1;jettySize=auto;html=1;exitX=0.5;exitY=1;exitDx=0;exitDy=0;entryX=0.5;entryY=0;entryDx=0;entryDy=0;" edge="1" source="5PDw7rlpr2lXiX5na-lG-73" target="5PDw7rlpr2lXiX5na-lG-74" parent="1">
          <mxGeometry relative="1" as="geometry" />
        </mxCell>
        <mxCell id="5PDw7rlpr2lXiX5na-lG-73" value="3" style="rounded=0;whiteSpace=wrap;html=1;fillColor=#99FF99;fontColor=#006600;" vertex="1" parent="1">
          <mxGeometry x="200" y="160" width="10" height="10" as="geometry" />
        </mxCell>
        <mxCell id="5PDw7rlpr2lXiX5na-lG-74" value="3" style="rounded=0;whiteSpace=wrap;html=1;fillColor=#66B2FF;fontColor=#0066CC;" vertex="1" parent="1">
          <mxGeometry x="234" y="200" width="10" height="10" as="geometry" />
        </mxCell>
        <mxCell id="5PDw7rlpr2lXiX5na-lG-75" style="rounded=0;orthogonalLoop=1;jettySize=auto;html=1;exitX=0.5;exitY=1;exitDx=0;exitDy=0;entryX=0.5;entryY=0;entryDx=0;entryDy=0;" edge="1" source="5PDw7rlpr2lXiX5na-lG-76" target="5PDw7rlpr2lXiX5na-lG-77" parent="1">
          <mxGeometry relative="1" as="geometry" />
        </mxCell>
        <mxCell id="5PDw7rlpr2lXiX5na-lG-76" value="4" style="rounded=0;whiteSpace=wrap;html=1;fillColor=#99FF99;fontColor=#006600;" vertex="1" parent="1">
          <mxGeometry x="240" y="160" width="10" height="10" as="geometry" />
        </mxCell>
        <mxCell id="5PDw7rlpr2lXiX5na-lG-77" value="4" style="rounded=0;whiteSpace=wrap;html=1;fillColor=#66B2FF;fontColor=#0066CC;" vertex="1" parent="1">
          <mxGeometry x="274" y="200" width="10" height="10" as="geometry" />
        </mxCell>
        <mxCell id="5PDw7rlpr2lXiX5na-lG-81" style="rounded=0;orthogonalLoop=1;jettySize=auto;html=1;exitX=0.5;exitY=1;exitDx=0;exitDy=0;entryX=0.5;entryY=0;entryDx=0;entryDy=0;" edge="1" source="5PDw7rlpr2lXiX5na-lG-82" target="5PDw7rlpr2lXiX5na-lG-83" parent="1">
          <mxGeometry relative="1" as="geometry" />
        </mxCell>
        <mxCell id="5PDw7rlpr2lXiX5na-lG-82" value="5" style="rounded=0;whiteSpace=wrap;html=1;fillColor=#99FF99;fontColor=#006600;" vertex="1" parent="1">
          <mxGeometry x="280" y="160" width="10" height="10" as="geometry" />
        </mxCell>
        <mxCell id="5PDw7rlpr2lXiX5na-lG-83" value="5" style="rounded=0;whiteSpace=wrap;html=1;fillColor=#66B2FF;fontColor=#0066CC;" vertex="1" parent="1">
          <mxGeometry x="314" y="200" width="10" height="10" as="geometry" />
        </mxCell>
        <mxCell id="5PDw7rlpr2lXiX5na-lG-143" value="&lt;p style=&quot;line-height: 130%;&quot;&gt;&lt;font style=&quot;font-size: 15px;&quot;&gt;...&lt;/font&gt;&lt;/p&gt;" style="rounded=0;whiteSpace=wrap;html=1;strokeColor=none;align=center;" vertex="1" parent="1">
          <mxGeometry x="330" y="145" width="30" height="70" as="geometry" />
        </mxCell>
        <mxCell id="5PDw7rlpr2lXiX5na-lG-160" value="oneskorenie" style="text;html=1;align=center;verticalAlign=middle;whiteSpace=wrap;rounded=0;spacingRight=4;fontColor=#FF8000;" vertex="1" parent="1">
          <mxGeometry x="102" y="220" width="80" height="20" as="geometry" />
        </mxCell>
        <mxCell id="5PDw7rlpr2lXiX5na-lG-162" value="snímková frekvencia" style="text;html=1;align=center;verticalAlign=middle;whiteSpace=wrap;rounded=0;spacingRight=4;fontColor=#FF8000;" vertex="1" parent="1">
          <mxGeometry x="184.56" y="120" width="80" height="20" as="geometry" />
        </mxCell>
      </root>
    </mxGraphModel>
  </diagram>
</mxfile>
